<svg height="389pt" viewBox="-17 0 389 389.11744" width="389pt" xmlns="http://www.w3.org/2000/svg"><path d="m177.550781 6.824219-170.664062 157.011719v136.535156h341.332031v-136.535156zm0 0" fill="#999"/><path d="m177.550781 6.824219-4.621093-5.023438-170.664063 157.011719c-1.402344 1.285156-2.2070312 3.121094-2.2070312 5.023438v136.535156c0 1.824218.7109372 3.535156 2.0000002 4.824218 1.289062 1.292969 3.003906 2 4.828125 2h341.332031c1.824219 0 3.535156-.707031 4.828125-2 1.289063-1.289062 2-3 2-4.824218v-136.535156c0-1.898438-.808594-3.734376-2.207031-5.023438l-170.667969-157.011719c-2.605469-2.402343-6.632813-2.402343-9.242187 0l4.621093 5.023438-4.621093 5.023437 168.460937 154.984375v126.707031h-327.679687v-126.707031l168.460937-154.988281-4.621094-5.019531-4.621093 5.023437zm0 0" fill="#54596e"/><path d="m54.671875 40.957031h245.761719v259.414063h-245.761719zm0 0" fill="#fff"/><path d="m300.433594 40.957031v-6.828125h-245.761719c-1.796875 0-3.554687.730469-4.828125 2-1.269531 1.273438-2 3.03125-2 4.828125v259.414063c0 1.824218.710938 3.535156 2 4.824218 1.292969 1.292969 3.003906 2 4.828125 2h245.761719c1.820312 0 3.535156-.707031 4.824218-2 1.289063-1.289062 2-3 2-4.824218v-259.414063c0-1.796875-.726562-3.554687-2-4.828125-1.269531-1.269531-3.027343-2-4.824218-2v6.828125h-6.828125v252.585938h-232.105469v-245.761719h238.933594v-6.824219h-6.828125zm0 0" fill="#54596e"/><path d="m312.316406 382.289062h-269.53125c-19.824218 0-35.902344-16.070312-35.902344-35.90625v-182.546874l170.671876 95.574218 170.664062-95.574218v182.546874c0 19.835938-16.070312 35.90625-35.902344 35.90625" fill="#a1b7ff"/><path d="m312.316406 382.289062v-6.824218h-269.53125c-8.046875-.007813-15.273437-3.246094-20.558594-8.515625-5.269531-5.285157-8.511718-12.511719-8.515624-20.566407v-170.90625l160.503906 89.890626c2.074218 1.15625 4.601562 1.15625 6.671875 0l160.507812-89.886719v170.902343c-.007812 8.054688-3.246093 15.28125-8.515625 20.566407-5.285156 5.269531-12.511718 8.507812-20.5625 8.515625v13.652344c23.601563-.003907 42.726563-19.125 42.730469-42.734376v-182.546874c0-2.414063-1.289063-4.664063-3.375-5.886719-2.085937-1.222657-4.679687-1.25-6.785156-.066407l-167.332031 93.703126-167.332032-93.703126c-2.113281-1.183593-4.707031-1.15625-6.792968.066407-2.082032 1.21875-3.3710942 3.46875-3.3710942 5.886719v182.546874c.0039062 23.605469 19.1250002 42.730469 42.7265622 42.734376h269.53125z" fill="#54596e"/><path d="m336.722656 372.628906-159.167968-133.699218-154.414063 129.707031z" fill="#a1b7ff"/><path d="m341.113281 367.402344-159.171875-133.699219c-2.539062-2.136719-6.238281-2.136719-8.777344 0l-154.414062 129.707031c-2.890625 2.425782-3.265625 6.726563-.839844 9.617188 2.421875 2.890625 6.734375 3.265625 9.621094.839844l150.023438-126.023438 154.773437 130.011719c2.890625 2.425781 7.195313 2.050781 9.621094-.832031 2.425781-2.890626 2.050781-7.195313-.835938-9.621094" fill="#54596e"/><path d="m300.433594 44.371094c0-13.191406-10.699219-23.894532-23.894532-23.894532h-238.933593c-13.195313 0-23.894531 10.703126-23.894531 23.894532s10.699218 23.894531 23.894531 23.894531h238.933593" fill="#ededed"/><path d="m307.257812 44.371094c-.003906-16.964844-13.746093-30.71875-30.71875-30.71875h-238.933593c-16.972657 0-30.714844 13.753906-30.71875 30.71875.003906 16.964844 13.746093 30.714844 30.71875 30.71875h238.933593c3.769532 0 6.824219-3.058594 6.824219-6.824219 0-3.773437-3.054687-6.828125-6.824219-6.828125h-238.933593c-9.421875-.019531-17.050781-7.644531-17.066407-17.066406.015626-9.421875 7.644532-17.050782 17.066407-17.070313h238.933593c9.421876.019531 17.050782 7.648438 17.066407 17.070313 0 3.769531 3.054687 6.828125 6.828125 6.828125 3.769531 0 6.824218-3.058594 6.824218-6.828125zm0 0" fill="#54596e"/><path d="m300.433594 44.371094c0-13.191406-10.699219-23.894532-23.894532-23.894532-13.195312 0-23.894531 10.703126-23.894531 23.894532s10.699219 23.894531 23.894531 23.894531" fill="#fff"/><g fill="#54596e"><path d="m307.257812 44.371094c-.003906-16.964844-13.746093-30.71875-30.71875-30.71875-16.972656 0-30.714843 13.753906-30.71875 30.71875.003907 16.964844 13.746094 30.714844 30.71875 30.71875 3.769532 0 6.824219-3.058594 6.824219-6.824219 0-3.773437-3.054687-6.828125-6.824219-6.828125-9.421874-.019531-17.050781-7.644531-17.066406-17.066406.015625-9.421875 7.644532-17.050782 17.066406-17.070313 9.421876.019531 17.050782 7.648438 17.066407 17.070313 0 3.769531 3.054687 6.828125 6.828125 6.828125 3.769531 0 6.824218-3.058594 6.824218-6.828125zm0 0"/><path d="m293.605469 40.957031v20.480469c0 3.769531 3.054687 6.828125 6.828125 6.828125 3.769531 0 6.824218-3.058594 6.824218-6.828125v-20.480469c0-3.769531-3.054687-6.828125-6.824218-6.828125-3.773438 0-6.828125 3.058594-6.828125 6.828125"/><path d="m113.109375 105.398438c-3.996094-4-10.480469-4-14.480469 0-3.996094 3.996093-3.996094 10.480468 0 14.476562 4 4 10.484375 4 14.480469 0 4-3.996094 4-10.480469 0-14.476562zm0 0"/><path d="m208.683594 105.398438c-4-4-10.480469-4-14.480469 0-3.996094 4-3.996094 10.480468 0 14.480468 4 3.996094 10.480469 3.996094 14.480469 0 3.996094-4 3.996094-10.480468 0-14.480468zm0 0"/><path d="m102.460938 158.21875c.105468-10.714844 95.464843-10.714844 95.570312 0v.226562c0 18.058594-21.390625 32.699219-47.785156 32.699219-26.390625 0-47.789063-14.640625-47.789063-32.699219zm0 0"/></g><path d="m169.574219 170.664062c0-3.769531-9.167969-6.828124-20.480469-6.828124-11.308594 0-20.480469 3.058593-20.480469 6.828124 0 3.769532 9.171875 6.828126 20.480469 6.828126 11.3125 0 20.480469-3.058594 20.480469-6.828126zm0 0" fill="#ff927d"/><path d="m341.394531 333.316406c-5.523437 7.613282-13.960937 12.96875-23.675781 14.4375l18.347656 15.410156c3.355469-4.742187 5.320313-10.511718 5.324219-16.78125v-13.066406" fill="#96a9e9"/><path d="m348.21875 312.25c0 7.871094-2.53125 15.148438-6.824219 21.066406v13.066406c-.003906 6.269532-1.96875 12.039063-5.328125 16.78125l5.046875 4.238282c.066407.054687.128907.109375.195313.167968 4.34375-5.9375 6.910156-13.261718 6.910156-21.1875z" fill="#54596e"/><path d="m13.710938 333.316406v13.066406c.003906 6.273438 1.96875 12.042969 5.328124 16.78125l18.347657-15.410156c-9.714844-1.464844-18.152344-6.824218-23.675781-14.4375" fill="#96a9e9"/><path d="m6.882812 312.25v34.132812c0 9.601563 3.765626 18.320313 9.902344 24.761719-1.050781-2.65625-.347656-5.796875 1.960938-7.734375l.289062-.246094c-3.355468-4.738281-5.324218-10.507812-5.328125-16.78125v-13.066406c-4.289062-5.917968-6.824219-13.195312-6.824219-21.066406" fill="#54596e"/><path d="m33.601562 368.769531-4.136718 3.46875c3.988281 2.0625 8.507812 3.222657 13.320312 3.226563h269.53125c4.621094-.003906 8.972656-1.074219 12.839844-2.980469z" fill="#96a9e9"/><path d="m29.464844 372.238281-1.933594 1.628907c-1.28125 1.074218-2.839844 1.597656-4.386719 1.597656-.578125 0-1.160156-.074219-1.71875-.21875 5.96875 4.429687 13.359375 7.046875 21.359375 7.046875h269.53125c6.933594 0 13.410156-1.964844 18.898438-5.371094l-5.273438-4.429687-.785156-.007813c-3.867188 1.90625-8.21875 2.976563-12.839844 2.980469h-269.53125c-4.8125-.003906-9.332031-1.164063-13.320312-3.226563" fill="#54596e"/><path d="m296.976562 348.15625h-238.839843l-24.535157 20.613281 291.558594 3.710938.785156.011719z" fill="#96a9e9"/><path d="m37.386719 347.753906-18.347657 15.410156-.289062.246094c-2.3125 1.9375-3.015625 5.078125-1.960938 7.734375 1.421876 1.496094 2.976563 2.871094 4.636719 4.101563.5625.144531 1.140625.21875 1.71875.21875 1.550781 0 3.109375-.527344 4.386719-1.601563l1.9375-1.625 4.132812-3.472656 24.535157-20.609375h-15.351563c-1.832031 0-3.636718-.136719-5.398437-.402344m280.332031 0c-1.761719.265625-3.566406.402344-5.402344.402344h-15.339844l28.96875 24.335938 5.273438 4.425781c3.933594-2.441407 7.359375-5.621094 10.089844-9.347657-.066406-.054687-.128906-.113281-.195313-.167968l-5.046875-4.238282z" fill="#54596e"/></svg>