<svg height="512pt" viewBox="-20 0 512 512" width="512pt" xmlns="http://www.w3.org/2000/svg"><path d="m285.503906 96.996094c0 8.125 1.089844 15.996094 3.117188 23.484375l-127.609375 72.988281c-16.25-16.632812-38.925781-26.960938-64.015625-26.960938-49.429688 0-89.496094 40.066407-89.496094 89.496094 0 49.425782 40.066406 89.496094 89.496094 89.496094 25.09375 0 47.765625-10.332031 64.015625-26.964844l127.609375 72.984375c-2.027344 7.484375-3.117188 15.355469-3.117188 23.484375 0 49.425782 40.066406 89.496094 89.496094 89.496094 49.425781 0 89.496094-40.070312 89.496094-89.496094 0-49.429687-40.070313-89.496094-89.496094-89.496094-25.09375 0-47.765625 10.328126-64.015625 26.960938l-127.613281-72.984375c2.03125-7.484375 3.121094-15.355469 3.121094-23.480469 0-8.128906-1.089844-16-3.121094-23.488281l127.613281-72.984375c16.25 16.632812 38.925781 26.960938 64.015625 26.960938 49.429688 0 89.496094-40.070313 89.496094-89.496094 0-49.425782-40.066406-89.496094-89.496094-89.496094s-89.496094 40.070312-89.496094 89.496094zm0 0" fill="#cad8ea"/><g fill="#b0c4e0"><path d="m179.007812 183.175781c4.296876 3.078125 8.316407 6.519531 12.003907 10.292969l127.609375-72.988281c-2.027344-7.484375-3.117188-15.355469-3.117188-23.484375 0-44.3125 32.210938-81.101563 74.496094-88.238282-4.878906-.820312-9.886719-1.257812-15-1.257812-49.429688 0-89.496094 40.070312-89.496094 89.496094 0 8.128906 1.089844 16 3.117188 23.484375zm0 0"/><path d="m37.5 256.003906c0-44.316406 32.210938-81.101562 74.492188-88.238281-4.875-.824219-9.882813-1.257813-14.996094-1.257813-49.425782 0-89.496094 40.066407-89.496094 89.496094 0 49.425782 40.070312 89.496094 89.496094 89.496094 5.109375 0 10.121094-.4375 14.996094-1.261719-42.28125-7.136719-74.492188-43.921875-74.492188-88.234375zm0 0"/><path d="m315.503906 415.003906c0-8.128906 1.089844-16 3.117188-23.484375l-127.605469-72.984375c-3.6875 3.769532-7.707031 7.214844-12.003906 10.292969l109.609375 62.691406c-2.027344 7.484375-3.117188 15.355469-3.117188 23.484375 0 49.425782 40.066406 89.496094 89.496094 89.496094 5.113281 0 10.121094-.433594 15-1.257812-42.285156-7.136719-74.496094-43.921876-74.496094-88.238282zm0 0"/></g><path d="m117.140625 263.5h-15v-15h15zm-25 0h-15v-15h15zm0 0" fill="#fff"/><path d="m426.996094 96.996094h15c0-36.941406-30.054688-66.996094-66.996094-66.996094v15c28.671875 0 51.996094 23.324219 51.996094 51.996094zm0 0"/><path d="m96.996094 189.003906v15c28.671875 0 51.996094 23.324219 51.996094 51.996094h15c0-36.941406-30.054688-66.996094-66.996094-66.996094zm0 0"/><path d="m426.996094 415.003906h15c0-36.941406-30.054688-66.996094-66.996094-66.996094v15c28.671875 0 51.996094 23.324219 51.996094 51.996094zm0 0"/><path d="m375 318.007812c-24.371094 0-47.296875 8.890626-65.171875 25.160157l-117.855469-67.40625c2.605469-12.597657 2.777344-26.097657-.003906-39.523438l47-26.878906-7.449219-13.019531-56.902343 32.546875 1.519531 5.59375c3.808593 14.050781 3.8125 28.988281 0 43.039062l-1.515625 5.59375 137.675781 78.746094 4.054687-4.148437c15.5625-15.933594 36.394532-24.707032 58.652344-24.707032 45.210938 0 81.992188 36.785156 81.992188 82 0 45.210938-36.78125 81.996094-81.992188 81.996094-45.214844 0-82-36.785156-82-81.996094 0-7.289062.960938-14.53125 2.859375-21.519531l1.519531-5.597656-137.679687-78.742188-4.050781 4.148438c-15.566406 15.933593-36.398438 24.707031-58.65625 24.707031-45.214844 0-81.996094-36.78125-81.996094-81.996094s36.78125-81.996094 81.996094-81.996094c22.257812 0 43.085937 8.769532 58.648437 24.703126l4.054688 4.144531 137.679687-78.746094-1.515625-5.59375c-1.898437-6.992187-2.859375-14.230469-2.859375-21.519531 0-45.210938 36.785156-81.996094 81.996094-81.996094 45.214844 0 81.996094 36.78125 81.996094 81.996094s-36.78125 81.996094-81.996094 81.996094c-22.257812 0-43.085938-8.773438-58.648438-24.703126l-4.054687-4.148437-56.90625 32.546875 7.449219 13.019531 46.988281-26.875c17.875 16.269531 40.800781 25.160157 65.171875 25.160157 53.484375 0 96.996094-43.511719 96.996094-96.996094s-43.511719-96.996094-96.996094-96.996094-96.996094 43.511719-96.996094 96.996094c0 6.65625.679688 13.277344 2.019532 19.761718l-117.855469 67.40625c-17.875-16.265624-40.800781-25.15625-65.171875-25.15625-53.484375 0-96.996094 43.511719-96.996094 96.996094s43.511719 96.996094 96.996094 96.996094c24.375 0 47.300781-8.894531 65.175781-25.164062l117.855469 67.40625c-1.34375 6.484374-2.023438 13.105468-2.023438 19.761718 0 53.484375 43.511719 96.996094 96.996094 96.996094s96.996094-43.511719 96.996094-96.996094-43.511719-96.996094-96.996094-96.996094zm0 0"/></svg>