<?xml version="1.0" encoding="utf-8"?>
<!-- Generator: Adobe Illustrator 22.1.0, SVG Export Plug-In . SVG Version: 6.00 Build 0)  -->
<svg version="1.1" id="Layer_1" xmlns="http://www.w3.org/2000/svg" xmlns:xlink="http://www.w3.org/1999/xlink" x="0px" y="0px"
	 viewBox="0 0 512 512" style="enable-background:new 0 0 512 512;" xml:space="preserve">
<g>
	
		<linearGradient id="SVGID_1_" gradientUnits="userSpaceOnUse" x1="-196.7344" y1="-643.0823" x2="-239.2733" y2="-643.3728" gradientTransform="matrix(-0.9771 -0.323 0.2901 -0.8773 17.3894 -372.5973)">
		<stop  offset="0.2308" style="stop-color:#9B9A75"/>
		<stop  offset="0.5632" style="stop-color:#9C9B77"/>
		<stop  offset="0.6829" style="stop-color:#A2A17E"/>
		<stop  offset="0.7683" style="stop-color:#ABAA89"/>
		<stop  offset="0.8373" style="stop-color:#B8B79A"/>
		<stop  offset="0.8964" style="stop-color:#CAC8B0"/>
		<stop  offset="0.9482" style="stop-color:#DFDDCB"/>
		<stop  offset="0.9944" style="stop-color:#F8F6EB"/>
		<stop  offset="1" style="stop-color:#FBF9EF"/>
	</linearGradient>
	<path style="fill:url(#SVGID_1_);" d="M46.9,321l-3.6-1.2c0,0,0.5-18.3-6.1-19.5c-4.3-5,0.7-215,16.4-0.7c0,0-5.4,2.7-6.4,7.3
		C46.2,311.5,46.9,321,46.9,321z"/>
	
		<linearGradient id="SVGID_2_" gradientUnits="userSpaceOnUse" x1="-190.1831" y1="-568.6346" x2="-251.3805" y2="-674.6315" gradientTransform="matrix(-0.9771 -0.323 0.2901 -0.8773 17.3894 -372.5973)">
		<stop  offset="0" style="stop-color:#599E4C"/>
		<stop  offset="1" style="stop-color:#498E41"/>
	</linearGradient>
	<path style="fill:url(#SVGID_2_);" d="M48.9,303.4c0,0,31.4-20.7,24-63.5c-7.1-31.2-23.8-41.4-25.6-45.3c-2-2.8-4-7.7-4-7.7
		l1.3,86.8C44.7,273.7,41.9,300.2,48.9,303.4z"/>
	
		<linearGradient id="SVGID_3_" gradientUnits="userSpaceOnUse" x1="-184.5772" y1="-644.8318" x2="-227.9554" y2="-615.6947" gradientTransform="matrix(-0.9771 -0.323 0.2901 -0.8773 17.3894 -372.5973)">
		<stop  offset="0" style="stop-color:#4FA346"/>
		<stop  offset="0.2402" style="stop-color:#59A84F"/>
		<stop  offset="0.6511" style="stop-color:#75B667"/>
		<stop  offset="1" style="stop-color:#91C47F"/>
	</linearGradient>
	<path style="fill:url(#SVGID_3_);" d="M41.5,304.6c0,0-29.4-20.1-27.7-55.5c1.7-35.4,22.5-52.8,26.5-56c2.6-2.8,2.7-3.9,2.9-6.6
		c1.8,3.9,1.5,58.8,1.7,65.2C45.7,276.7,43.5,299.8,41.5,304.6z"/>
	<path style="fill:#C1BFBE;" d="M377.3,239.6c1.7,0,8.1,0.3,11.1,0.3c5.6,0,9.4-0.3,19.8-0.3c8.7,0,16.1,2.4,21.3,6.9
		c6.3,5.5,9.7,13.1,9.7,22.4c0,13.2-6,20.9-12.1,25.2c-6,4.5-13.9,7.1-25.1,7.1c-6,0-16.2-0.2-24.7-0.3h-0.1
		c-0.4-0.8,0.7-3.8,1.4-3.9c2.3-0.3,2.9-0.3,4-0.8c1.8-0.7,2.2-1.7,2.4-4.9c0.3-6.1,0.2-13.3,0.2-21.5c0-5.9,0.1-17.3-0.1-21
		c-0.3-3-1.6-3.8-4.2-4.4c-1.3-0.3-3.1-0.6-5.6-0.9C375.3,242.9,376.8,240.2,377.3,239.6z M397.1,294.1c2.1,1.7,6.2,2.4,9.9,2.4
		c4.8,0,9.4-0.9,14-5c4.7-4.2,7.8-10.7,7.8-21c0-9.9-3.8-17.9-11.5-22.6c-4.4-2.7-10-3.8-16.5-3.8c-1.9,0-3.8,0.1-4.9,0.6
		c-0.3,0.2-0.9,1-0.9,1.4c-0.2,1.8-0.2,15.2-0.2,23.1c0,8.1,0,19.5,0.2,20.9C395.2,291.2,395.8,293.2,397.1,294.1z"/>
	<path style="fill:#C1BFBE;" d="M447.6,239.6c0.9,0,3.5,0.3,10.3,0.3c6.3,0,11.5-0.2,17.7-0.2c7.6,0,18.1,2.7,18.1,14.1
		c0,5.6-4,10.1-9.1,12.2c-0.3,0.1-0.3,0.3,0,0.4c7.3,1.9,13.8,6.4,13.8,15c0,8.4-5.3,13.7-12.9,17c-4.7,2.1-10.4,2.7-16.3,2.7
		c-4.5,0-16.4-0.5-23.1-0.4c-0.7-0.3,0.6-3.4,1.2-3.9c1.6-0.1,2.8-0.2,4.5-0.7c2.4-0.6,2.7-1.4,3-4.9c0.2-3,0.2-13.9,0.2-21.6
		c0-10.6,0.1-17.7,0-21.3c-0.1-2.7-1.1-3.6-3-4.1c-1.5-0.3-4-0.6-5.9-0.9C445.6,243,447.1,240,447.6,239.6z M488,283.6
		c0-8.6-6.3-13.5-17.9-13.5c-0.5,0-4.2-0.1-5.1,0.1c-0.3,0.1-0.6,0.3-0.6,0.5c0,6.2-0.1,16.1,0.2,20c0.2,1.7,1.4,4,2.9,4.7
		c1.6,0.9,5.2,1.1,7.6,1.1C481.9,296.4,488,292.6,488,283.6z M465.5,244.4c-0.4,0.1-0.9,1.1-0.9,1.6c-0.1,3.5-0.2,12.7-0.2,19.1
		c0,0.2,0.3,0.5,0.5,0.5c1.3,0.1,4.5,0.2,7.1,0.2c3.8,0,6-0.5,7.1-1.1c3.2-1.6,4.7-5,4.7-8.7c0-8.5-5.9-11.8-14.8-11.8
		C468.5,244.2,466.8,244.2,465.5,244.4z"/>
	<path style="fill:#494849;" d="M92.8,301.1c-0.2-0.3-0.3-1-0.3-2c0-0.7,0.2-1.2,0.3-1.3c1.9-0.3,2.8-0.5,3.8-0.8
		c1.8-0.4,2.4-1.4,2.5-3.6c0.3-5.3,0.3-15.2,0.2-22.2l0-0.2c0-0.7,0-1.8-0.9-2.5c-1.4-0.9-3.1-1.7-5.3-2.3c-0.8-0.2-1.3-0.7-1.3-1.2
		c0-0.5,0.5-1.1,1.6-1.3c2.9-0.3,10.4-2.1,13.4-3.5c0.2,0.2,0.5,0.7,0.4,1.4c0,0.3,0,0.6-0.1,1c-0.1,1-0.2,2.1-0.2,3.2
		c0,0.3,0.4,0.6,0.7,0.6c0.2,0,0.4-0.1,0.5-0.2c5.6-4.4,10.7-6,13.3-6c4.3,0,7.6,2,10.1,6.2c0.1,0.2,0.4,0.3,0.6,0.3
		c0.2,0,0.4-0.1,0.5-0.3c5.2-3.9,10.3-6.3,13.7-6.3c8.1,0,13,6.1,13,16.2c0,2.9,0,6.6-0.1,10.1c0,3,0,5.9,0,7.8
		c0,0.5,0.6,1.8,1.6,2.1c1.2,0.6,2.9,0.9,5.1,1.2l0.1,0c0.2,0.6-0.2,2.8-0.5,3.3c-0.5,0-1.3,0-2.2-0.1c-1.7-0.1-4-0.2-6.7-0.2
		c-5.4,0-8.2,0.1-10.9,0.3c-0.2-0.7-0.3-2.8,0-3.3c1.6-0.3,2.3-0.5,3.3-0.8c1.7-0.6,2.2-1.3,2.3-3.6c0-1.6,0.4-15.9-0.2-19.3
		c-0.5-3.5-3.2-7.6-8.9-7.6c-2.1,0-5.6,0.9-8.9,3.4c-0.2,0.2-0.3,0.6-0.3,0.8l0,0.1c0.4,1.8,0.4,4,0.4,7.2c0,1.8,0,3.8,0,5.7
		c0,3.9,0,7.6,0,10.4c0,1.9,1.2,2.4,2.1,2.7c0.5,0.1,0.9,0.2,1.3,0.3c0.8,0.2,1.6,0.4,2.8,0.6c0.2,0.4,0.2,1.5,0,2.5
		c-0.1,0.5-0.3,0.8-0.3,0.8c-3-0.1-6.1-0.2-10.5-0.2c-1.3,0-3.5,0.1-5.5,0.1c-1.6,0-3.1,0.1-3.9,0.1c-0.1-0.2-0.3-0.8-0.3-1.7
		c0-0.8,0.2-1.4,0.3-1.6c0.4-0.1,0.8-0.1,1.2-0.2c1-0.2,1.9-0.3,2.8-0.6c1.5-0.4,2-1.3,2.1-3.1c0.3-4.4,0.5-16.9-0.1-20.1
		c-1.1-5-3.9-7.6-8.5-7.6c-2.7,0-6.1,1.3-8.9,3.4c-0.5,0.3-0.8,1.2-0.8,2c0,1.5,0,3.3,0,5.2c0,6.3,0,14.2,0.1,17.6
		c0.1,1,0.5,2.3,2.4,2.7c0.4,0.1,1.2,0.2,2,0.4c0.5,0.1,1,0.2,1.6,0.3c0.2,0.5,0.1,2.7-0.3,3.3c-0.9,0-1.9-0.1-3.1-0.1
		c-1.9-0.1-4.2-0.2-6.8-0.2c-3.1,0-5.3,0.1-7,0.2C94.8,301,93.8,301.1,92.8,301.1L92.8,301.1z"/>
	<path style="fill:#494849;" d="M192.8,302c-14.9,0-20.2-10.9-20.2-21.1c0-7.1,2.9-12.7,8.7-16.6c4.1-2.5,9-4,13.4-4
		c11.4,0,19.3,8.2,19.3,19.9c0,7.9-3.2,14.2-9.2,18.1C201.9,300.1,196.9,302,192.8,302L192.8,302z M191.2,264.5
		c-1.8,0-3.5,0.5-4.7,1.3c-3.4,2.1-5.2,6.3-5.2,12.4c0,11.5,5.8,19.5,14,19.5c2.4,0,4.4-0.7,6.1-2.1c2.5-2.1,3.9-6.3,3.9-12.2
		C205.2,272.1,199.6,264.5,191.2,264.5L191.2,264.5z"/>
	<path style="fill:#494849;" d="M347.1,302c-14.9,0-20.2-10.9-20.2-21.1c0-7.1,2.9-12.7,8.7-16.6c4.1-2.5,9-4,13.4-4
		c11.4,0,19.3,8.2,19.3,19.9c0,8-3.2,14.2-9.2,18.1C356.2,300.1,351.2,302,347.1,302L347.1,302z M345.5,264.5
		c-1.8,0-3.5,0.5-4.7,1.3c-3.4,2.1-5.2,6.3-5.2,12.4c0,11.5,5.8,19.5,14,19.5c2.4,0,4.4-0.7,6.1-2.1c2.5-2.1,3.9-6.3,3.9-12.2
		C359.5,272.1,353.9,264.5,345.5,264.5L345.5,264.5z"/>
	<path style="fill:#494849;" d="M295.6,325.5c-5.3,0-9.2-1.1-12.5-3.7c-3.2-2.5-4.6-6.1-4.6-8.7c0-0.7,0.2-2.6,1.8-4.4
		c0.9-1.1,3.1-3,8.1-6.5c0.2-0.1,0.3-0.2,0.3-0.4c0-0.2-0.1-0.4-0.3-0.4c-4.1-1.6-5.3-4.2-5.7-5.5c0-0.1,0-0.1,0-0.2
		c-0.1-0.5-0.2-1.1,0.5-1.6c0.6-0.4,1.5-1,2.5-1.5c1.4-0.9,3.1-1.8,4-2.6c0.1-0.1,0.2-0.3,0.2-0.6c0-0.2-0.2-0.4-0.3-0.5
		c-6.1-2-9.1-6.6-9.1-13.4c0-4.4,2-8.4,5.6-11c2.4-1.9,8.6-4.3,12.6-4.3l0.2,0c4.1,0.1,6.4,1,9.6,2.1c1.7,0.6,3.4,0.9,5.7,0.9
		c3.4,0,4.9-1.1,6.1-2.3c0.1,0.2,0.2,0.6,0.3,1.8c0.1,1.1-0.2,2.8-1.1,4c-0.7,1-2.3,1.7-3.8,1.7c-0.2,0-0.3,0-0.4,0
		c-1.6-0.2-2.3-0.4-2.3-0.4l-0.4,0.1c-0.1,0.2,0,0.4,0.1,0.6c0,0.1,0,0.1,0.1,0.2c0.2,0.8,0.6,3.1,0.6,3.8c0,7.2-2.8,10.4-5.9,12.7
		c-2.9,2.2-6.4,3.5-10.2,4h0c-0.1,0-0.4,0-1.2,0.1c-0.5,0-1.1,0.1-1.2,0.1l-0.1,0c-0.7,0.2-2.4,1-2.4,2.6c0,1.3,0.8,2.9,4.6,3.2
		c0.8,0.1,1.6,0.1,2.4,0.2c5,0.3,11.2,0.8,14.1,1.8c4,1.5,6.5,5.1,6.5,9.4c0,6.5-4.6,12.5-12.3,16.3
		C303.5,324.6,299.7,325.5,295.6,325.5L295.6,325.5z M295,302.8c-1.7,0-3,0.5-3.7,0.9c-3.6,2.3-5.3,4.7-5.3,7.3c0,2.5,1,4.5,3.1,6.3
		c2.6,2.2,6,3.2,10.5,3.2c8.9,0,12.9-4.8,12.9-9.5c0-3.3-1.7-5.5-5.1-6.8C304.8,303.3,300.4,302.8,295,302.8L295,302.8z
		 M295.6,264.1c-4.6,0-7.6,3.6-7.6,9.2c0,5.7,2.6,12.3,9.7,12.3c1.2,0,3.5-0.5,4.6-1.8c1.7-1.5,2.8-4.7,2.8-8
		C305.1,268.5,301.6,264.1,295.6,264.1L295.6,264.1z"/>
	<g>
		<g>
			<path style="fill:#494849;" d="M271.4,297.5c-2.2-0.3-3.8-0.6-5.7-1.5c-0.3-0.2-0.7-1.1-0.7-1.4c-0.2-3-0.2-11.8-0.2-17.6
				c0-4.7-0.8-8.8-2.8-11.8c-2.4-3.3-5.8-5.3-10.1-5.3c-3.9,0-9,2.6-13.3,6.3c-0.1,0.1-0.8,0.7-0.7-0.2c0-1,0.2-2.9,0.3-4.2
				c0.1-1.2-0.6-1.8-0.6-1.8c-2.8,1.4-10.6,3.2-13.5,3.5c-2.1,0.4-2.7,2.4-0.4,3.1l0,0c0,0,0,0,0,0c2.4,0.7,3.9,1.5,5.1,2.2
				c0.9,0.7,0.8,1.7,0.8,2.4c0.1,6.6,0.1,16.6-0.2,22.1c-0.1,2.2-0.7,2.9-2.3,3.3l0.1,0c-1.2,0.3-2.2,0.5-3.7,0.7
				c-0.5,0.5-0.5,3.3,0,3.9c1,0,6-0.3,10.2-0.3c5.8,0,8.7,0.3,10.2,0.3c0.6-0.7,0.8-3.3,0.4-3.9c-1.7-0.1-2.9-0.3-4.1-0.6
				c-1.6-0.4-2-1.2-2.1-2.9c-0.2-4.6-0.2-14.4-0.2-21.1c0-1.9,0.5-2.7,1.1-3.2c2-1.8,5.3-2.9,8.1-2.9c2.8,0,4.7,0.9,6,2.1
				c1.9,1.6,2.6,3.8,2.8,5.5c0.4,3.7,0.3,11.2,0.3,17.6c0,3.5-0.3,4.4-1.6,4.8c-0.6,0.3-2.2,0.6-4.1,0.8c-0.6,0.6-0.4,3.3,0,3.9
				c2.6,0,5.6-0.3,9.9-0.3c5.5,0,8.9,0.3,10.3,0.3C271.6,300.7,271.8,298.2,271.4,297.5z"/>
		</g>
	</g>
</g>
</svg>
