<svg height="387pt" viewBox="0 -7 387.3024 387" width="387pt" xmlns="http://www.w3.org/2000/svg"><path d="m287.878906 366.984375h-234.425781c-25.75 0-46.625-20.871094-46.625-46.625v-234.425781c0-25.753906 20.875-46.625 46.625-46.625h234.425781c25.75 0 46.625 20.871094 46.625 46.625v234.425781c0 25.753906-20.875 46.625-46.625 46.625" fill="#9af43b"/><path d="m287.878906 366.984375v-6.828125h-234.425781c-11.011719-.003906-20.917969-4.441406-28.144531-11.652344-7.210938-7.226562-11.65625-17.136718-11.660156-28.144531v-234.425781c.007812-11.011719 4.449218-20.921875 11.660156-28.144532 7.222656-7.210937 17.132812-11.65625 28.144531-11.660156h234.425781c11.011719.003906 20.917969 4.449219 28.144532 11.660156 7.210937 7.222657 11.65625 17.132813 11.65625 28.144532v234.425781c0 11.007813-4.445313 20.917969-11.65625 28.144531-7.222657 7.210938-17.132813 11.648438-28.144532 11.652344v13.652344c29.523438-.003906 53.449219-23.925782 53.453125-53.449219v-234.425781c-.003906-29.53125-23.929687-53.449219-53.453125-53.453125h-234.425781c-29.523437.003906-53.44921875 23.925781-53.453125 53.453125v234.425781c.00390625 29.523437 23.929688 53.445313 53.453125 53.449219h234.425781z" fill="#54596e"/><path d="m13.648438 310.519531v9.839844c.007812 11.007813 4.449218 20.917969 11.660156 28.144531 7.222656 7.210938 17.132812 11.648438 28.144531 11.652344h234.425781c11.011719-.003906 20.917969-4.441406 28.144532-11.652344 7.210937-7.226562 11.65625-17.136718 11.65625-28.144531v-9.832031c-8.195313 13.386718-22.953126 22.324218-39.800782 22.324218h-234.425781c-16.847656 0-31.609375-8.941406-39.804687-22.332031" fill="#90dd43"/><path d="m334.503906 286.222656c0 8.90625-2.496094 17.226563-6.824218 24.304688v9.832031c0 11.007813-4.445313 20.917969-11.65625 28.144531-7.222657 7.210938-17.132813 11.648438-28.144532 11.652344h-234.425781c-11.011719-.003906-20.917969-4.441406-28.144531-11.652344-7.210938-7.226562-11.65625-17.136718-11.660156-28.144531v-9.839844c-4.328126-7.078125-6.820313-15.394531-6.820313-24.296875v34.136719c0 25.746094 20.875 46.625 46.625 46.625h234.425781c25.75 0 46.625-20.878906 46.625-46.625z" fill="#54596e"/><path d="m380.464844 58.0625c-.953125-29.144531-25.355469-52-54.5-51.046875-29.144532.953125-51.996094 25.355469-51.042969 54.5.953125 29.148437 25.351563 52 54.496094 51.046875s52-25.351562 51.046875-54.5zm0 0" fill="#f99"/><g fill="#54596e"><path d="m380.449219 58.058594 6.824219-.226563c-1.058594-32.253906-27.519532-57.675781-59.5625-57.679687-.636719 0-1.320313.003906-2.046876.035156l.066407-.003906c-32.253907 1.0625-57.671875 27.519531-57.679688 59.5625 0 .65625.011719 1.316406.035157 1.992187 1.058593 32.246094 27.515624 57.664063 59.558593 57.667969.664063 0 1.3125-.011719 1.953125-.027344l.03125-.003906c32.25-1.0625 57.671875-27.523438 57.671875-59.566406 0-.660156-.007812-1.320313-.03125-1.976563l-6.820312.226563-6.824219.21875.027344 1.535156c.003906 24.683594-19.609375 45.113281-44.46875 45.921875l.03125-.003906-1.566406.027343c-24.683594 0-45.113282-19.609374-45.914063-44.472656l-.027344-1.535156c-.003906-24.683594 19.609375-45.113281 44.46875-45.917969h.066407l1.46875-.027343c24.683593-.003907 45.113281 19.609374 45.914062 44.472656zm0 0"/><path d="m65.261719 178.835938c-3.996094-3.996094-10.480469-3.996094-14.476563 0-4 4-4 10.480468 0 14.480468 3.996094 3.996094 10.480469 3.996094 14.476563 0 4-4 4-10.480468 0-14.480468zm0 0"/><path d="m283.714844 178.839844c-3.996094-4-10.480469-4-14.480469 0-3.996094 3.996094-3.996094 10.480468 0 14.476562 4 4 10.484375 4 14.480469 0 4-3.996094 4-10.480468 0-14.476562zm0 0"/><path d="m122.882812 218.003906c.105469-10.710937 95.464844-10.710937 95.570313 0v.226563c0 18.058593-21.394531 32.699219-47.785156 32.699219s-47.789063-14.640626-47.789063-32.699219zm0 0"/></g><path d="m189.996094 230.449219c0-3.769531-9.167969-6.824219-20.480469-6.824219-11.308594 0-20.480469 3.054688-20.480469 6.824219 0 3.773437 9.171875 6.828125 20.480469 6.828125 11.3125 0 20.480469-3.054688 20.480469-6.828125zm0 0" fill="#ff927d"/></svg>